<?xml version="1.0" encoding="utf-8"?>
<!-- Generator: Adobe Illustrator 26.2.1, SVG Export Plug-In . SVG Version: 6.00 Build 0)  -->
<svg version="1.1" id="Layer_1" xmlns="http://www.w3.org/2000/svg" xmlns:xlink="http://www.w3.org/1999/xlink" x="0px" y="0px"
	 viewBox="0 0 576 576" style="enable-background:new 0 0 576 576;" xml:space="preserve">
<g id="_x30_4">
	<path fill="#ffc930" d="M284.532,541.04c-1.557,0-3.12-0.363-4.557-1.099c-2.334-1.195-57.876-29.898-118.946-84.1
		c-35.944-31.901-66.247-66.019-90.068-101.405C41.011,309.944,21.275,263.31,12.3,215.829c-5.924-31.344-2.802-60.75,9.028-85.04
		c11.547-23.708,30.986-41.013,54.737-48.725c33.085-10.745,71.553-2.499,108.317,23.219c37.337,26.117,72.44,70.01,102.249,127.657
		c22.364-47.67,51.257-86.43,84.301-112.883c33.409-26.745,70.595-40.423,104.703-38.524c42.471,2.369,74.744,27.987,86.333,68.528
		c12.798,44.772-1.291,103.108-39.67,164.261c-46.084,73.432-124.146,149.099-232.016,224.9
		C288.567,540.428,286.554,541.04,284.532,541.04z M105.623,97.477c-8.109,0-15.942,1.193-23.381,3.608
		c-18.539,6.02-33.786,19.679-42.933,38.46c-9.932,20.392-12.476,45.486-7.356,72.569c8.451,44.711,27.102,88.755,55.434,130.907
		c22.819,33.95,51.934,66.76,86.533,97.52c48.626,43.23,94.696,70.301,109.915,78.753
		C386.898,446.235,461.41,373.718,505.358,303.69c35.322-56.282,48.598-108.89,37.38-148.133
		c-9.14-31.976-34.641-52.183-68.217-54.056c-29.175-1.625-61.533,10.507-91.089,34.168c-34.878,27.922-64.969,71.047-87.02,124.715
		c-1.505,3.665-5.033,6.095-8.993,6.196c-3.973,0.123-7.607-2.145-9.299-5.727c-30.257-64.077-66.635-112.206-105.201-139.184
		C150.106,105.713,126.921,97.477,105.623,97.477z"/>
	<path fill="#ffc930" d="M282.569,510.045c-1.756,0-3.519-0.461-5.1-1.399c-2.126-1.261-52.726-31.551-108.165-88.938
		c-32.589-33.735-60.014-69.847-81.513-107.334c-26.97-47.027-44.637-96.352-52.508-146.604
		c-5.005-31.952-2.273-60.932,7.902-83.807c10.132-22.778,27.465-38.551,48.808-44.412c49.61-13.627,128.972,25.087,194.95,175.195
		c20.765-50.552,47.369-92.331,77.683-121.768c31.139-30.237,65.729-46.907,97.398-46.939c0.029,0,0.061,0,0.09,0
		c34.406,0,62.09,19.904,74.066,53.261c15.239,42.443,4.538,101.435-30.134,166.109c-19.657,36.667-46.848,75.009-80.816,113.96
		c-37.395,42.879-83.254,86.751-136.306,130.397C287.091,509.275,284.836,510.045,282.569,510.045z M111.77,54.932
		c-4.999,0-9.836,0.63-14.481,1.906c-33.734,9.265-50.712,51.797-42.247,105.837c7.476,47.721,24.272,94.637,49.923,139.443
		c20.613,36.006,46.962,70.752,78.315,103.271c42.893,44.488,83.658,72.686,98.498,82.334
		c95.995-79.791,167.374-160.519,206.64-233.763c18.511-34.528,46.885-99.917,28.938-149.901
		c-9.133-25.436-29.267-40.019-55.243-40.019c-0.023,0-0.046,0-0.069,0c-26.446,0.027-56.095,14.689-83.485,41.288
		c-32.708,31.761-60.986,79.353-81.779,137.631c-1.397,3.916-5.072,6.559-9.229,6.638c-4.193,0.083-7.929-2.422-9.474-6.283
		c-27.972-69.896-61.851-123.898-97.972-156.167C156.456,66.02,132.724,54.932,111.77,54.932z"/>
</g>
</svg>
